<svg width="97" height="88" viewBox="0 0 97 88" fill="none" xmlns="http://www.w3.org/2000/svg">
<g clip-path="url(#clip0_1_1968)">
<path opacity="0.25" d="M96.7272 20.5201C97.8488 27.5626 95.3632 35.0907 90.2707 40.1296C82.4197 47.8702 69.931 49.0541 61.8072 56.4608C54.3806 63.23 51.8344 74.0365 44.6806 81.1093C33.7378 91.9461 13.1253 89.5481 4.39534 76.8596C-4.27404 64.171 0.424399 44.5919 13.58 36.6388C23.3103 30.7802 35.8597 30.8409 45.2566 24.4663C51.9557 19.9434 56.2297 12.6885 61.9588 6.98166C76.145 -7.16391 93.7566 1.63913 96.7272 20.5201Z" fill="url(#paint0_linear_1_1968)"/>
<path d="M51.2888 80.3201C30.8278 80.3201 14.1863 63.655 14.1863 43.1652C14.1863 22.6754 30.8278 5.97998 51.2888 5.97998C71.7497 5.97998 88.3913 22.645 88.3913 43.1349C88.3913 63.6247 71.7497 80.2897 51.2888 80.2897V80.3201ZM51.2888 9.01551C32.495 9.01551 17.2175 24.3146 17.2175 43.1349C17.2175 61.9551 32.495 77.2542 51.2888 77.2542C70.0825 77.2542 85.36 61.9551 85.36 43.1349C85.36 24.3146 70.0825 9.01551 51.2888 9.01551Z" fill="#33006F"/>
<path d="M47.4998 61.6211L38.4666 52.5753H38.497L30.252 44.2883L39.3154 35.212L47.5301 43.4383L63.3229 27.6536L72.3863 36.7298L47.5301 61.6211H47.4998ZM42.7104 52.5145L47.4998 57.3107L68.082 36.6994L63.3229 31.9337L47.5301 47.7184L39.3154 39.4921L34.5563 44.2579L42.771 52.4842H42.7407L42.7104 52.5145Z" fill="#33006F"/>
</g>
<defs>
<linearGradient id="paint0_linear_1_1968" x1="2.57743e-05" y1="44.0151" x2="97" y2="44.0151" gradientUnits="userSpaceOnUse">
<stop stop-color="#AB00F4"/>
<stop offset="1" stop-color="#F5C552"/>
</linearGradient>
<clipPath id="clip0_1_1968">
<rect width="97" height="88" fill="white"/>
</clipPath>
</defs>
</svg>
