<svg width="118" height="116" viewBox="0 0 118 116" fill="none" xmlns="http://www.w3.org/2000/svg">
<path opacity="0.25" d="M0.866146 20.7202C-1.25897 28.4983 0.591899 37.2701 5.69903 43.5064C13.5482 53.1348 27.43 56.0473 35.6563 65.3674C43.1627 73.8651 44.7052 86.3375 51.8346 95.1436C62.7686 108.644 86.282 108.541 97.6273 95.3492C108.973 82.1572 106.128 59.6109 92.3145 49.0573C82.1003 41.2791 67.9786 39.8058 58.2099 31.4794C51.2519 25.5515 47.3444 16.9168 41.6203 9.78968C27.4301 -7.8225 6.55596 -0.147152 0.866146 20.6859V20.7202Z" fill="url(#paint0_linear_1_1758)"/>
<path d="M50.8053 94.2183C25.5782 94.2183 5.04688 73.7279 5.04688 48.5774C5.04688 23.427 25.5782 2.93652 50.8053 2.93652C68.8345 2.93652 85.2527 13.5587 92.6221 30.0058L89.503 31.4107C82.682 16.197 67.4977 6.36302 50.8053 6.36302C27.4634 6.36302 8.47448 25.3115 8.47448 48.5774C8.47448 71.8433 27.4634 90.7918 50.8053 90.7918C74.1473 90.7918 93.1362 71.8433 93.1362 48.5774C93.1362 47.6523 93.1362 46.6928 93.0334 45.7677L96.461 45.5621C96.5296 46.5558 96.5638 47.5495 96.5638 48.5774C96.5638 73.7621 76.0325 94.2183 50.8053 94.2183Z" fill="#33006F"/>
<path d="M93.2733 93.91L88.1319 88.7361C87.9262 88.5305 87.6863 88.2906 87.4807 88.085C84.3273 84.8984 80.934 81.5062 80.1113 80.6495L82.5449 78.251L90.5655 86.3375C93.0334 88.8046 95.1928 90.9975 95.7069 91.5115L93.2733 93.91Z" fill="#33006F"/>
<path d="M109.348 115.977C107.189 115.977 104.995 115.154 103.35 113.51L87.6172 97.8848L99.7166 85.8921L115.381 101.448C116.992 103.059 117.883 105.218 117.883 107.479C117.883 109.74 116.992 111.899 115.381 113.51C113.735 115.154 111.542 115.977 109.382 115.977H109.348ZM92.4501 97.8848L105.749 111.077C107.737 113.03 110.959 113.03 112.913 111.077C113.873 110.117 114.421 108.815 114.421 107.479C114.421 106.143 113.873 104.841 112.913 103.881L99.6481 90.7235L92.4158 97.8848H92.4501Z" fill="#33006F"/>
<path d="M93.2399 35.043L80.1465 31.3424L81.072 28.0187L90.8749 30.7942L93.7541 20.686L97.0446 21.6112L93.2399 35.043Z" fill="#33006F"/>
<path d="M50.8046 67.7315C40.6247 67.7315 30.4447 61.6666 20.4704 49.6739L19.5449 48.5774L20.4704 47.481C40.419 23.5298 61.2245 23.5298 81.1732 47.481L82.0987 48.5774L81.1732 49.6739C71.1989 61.6324 60.9846 67.7315 50.8389 67.7315H50.8046ZM24.0008 48.5774C41.9614 69.4448 59.6136 69.4448 77.5742 48.5774C59.6136 27.7101 41.9614 27.7101 24.0008 48.5774Z" fill="#33006F"/>
<path d="M50.8057 58.343C45.4244 58.343 41.0371 53.9571 41.0371 48.5775C41.0371 43.1979 45.4244 38.812 50.8057 38.812C56.1871 38.812 60.5401 43.1979 60.5401 48.5775C60.5401 53.9571 56.1528 58.343 50.8057 58.343ZM50.8057 42.2728C47.3096 42.2728 44.4647 45.1168 44.4647 48.6118C44.4647 52.1068 47.3096 54.9508 50.8057 54.9508C54.3019 54.9508 57.1125 52.1068 57.1125 48.6118C57.1125 45.1168 54.2676 42.2728 50.8057 42.2728Z" fill="#33006F"/>
<defs>
<linearGradient id="paint0_linear_1_1758" x1="0.00923875" y1="52.6551" x2="104.688" y2="52.6551" gradientUnits="userSpaceOnUse">
<stop stop-color="#AB00F4"/>
<stop offset="1" stop-color="#F5C552"/>
</linearGradient>
</defs>
</svg>
