<svg width="27" height="25" viewBox="0 0 27 25" fill="none" xmlns="http://www.w3.org/2000/svg">
<path d="M0.894287 3.01926C0.894287 2.18188 1.18774 1.49106 1.77463 0.946796C2.36152 0.402504 3.1245 0.130371 4.06352 0.130371C4.9858 0.130371 5.73197 0.398309 6.30211 0.934236C6.889 1.48689 7.18245 2.20701 7.18245 3.09462C7.18245 3.89849 6.8974 4.56836 6.32726 5.10428C5.74038 5.65694 4.96902 5.93327 4.01322 5.93327H3.98806C3.06579 5.93327 2.31961 5.65694 1.74948 5.10428C1.17934 4.55163 0.894287 3.85661 0.894287 3.01926ZM1.22127 24.9999V8.21926H6.80516V24.9999H1.22127ZM9.89894 24.9999H15.4828V15.6299C15.4828 15.0437 15.5499 14.5915 15.6841 14.2734C15.9188 13.704 16.2751 13.2225 16.753 12.8289C17.2309 12.4354 17.8304 12.2386 18.5515 12.2386C20.4295 12.2386 21.3686 13.503 21.3686 16.0318V24.9999H26.9524V15.3787C26.9524 12.9001 26.3656 11.0202 25.1918 9.73907C24.018 8.45791 22.4669 7.81733 20.5385 7.81733C18.3754 7.81733 16.6902 8.7468 15.4828 10.6057V10.656H15.4577L15.4828 10.6057V8.21926H9.89894C9.93247 8.75516 9.94925 10.4215 9.94925 13.2183C9.94925 16.0151 9.93247 19.9423 9.89894 24.9999Z" fill="url(#paint0_linear_1_1437)"/>
<defs>
<linearGradient id="paint0_linear_1_1437" x1="1.34813" y1="16.7458" x2="21.2702" y2="24.1981" gradientUnits="userSpaceOnUse">
<stop stop-color="#6E229E"/>
<stop offset="1" stop-color="#FE9914"/>
</linearGradient>
</defs>
</svg>
