<svg width="116" height="117" viewBox="0 0 116 117" fill="none" xmlns="http://www.w3.org/2000/svg">
<path opacity="0.25" d="M19.2281 69.3565C14.9436 62.058 13.0584 52.9093 16.2461 45.0969C20.7362 34.2006 33.3841 29.0952 40.0679 19.3639C43.5983 14.2242 45.4835 7.78238 50.2822 3.77338C55.972 -0.989446 64.6095 -0.955181 71.2934 2.26572C77.9772 5.48663 83.0158 11.3802 87.1289 17.5479C91.242 23.7156 94.6696 30.3972 99.2283 36.2223C102.279 40.0942 105.844 43.5892 108.894 47.4612C111.945 51.3331 114.584 55.7533 115.338 60.6532C116.126 65.5188 114.79 70.9669 111.019 74.1878C105.364 79.0192 96.4862 77.58 90.2137 81.589C86.1692 84.1932 83.8041 88.6819 80.5136 92.2112C75.1665 98.0019 67.0774 101.12 59.2282 100.469C43.9068 99.2012 26.5289 81.8632 19.1938 69.3565H19.2281Z" fill="url(#paint0_linear_1_1787)"/>
<path d="M76.2298 40.0258L77.0867 20.0493L96.5212 0.621094L96.1099 20.1521L115.647 19.7409L96.1785 39.1691L76.1956 40.0258H76.2298ZM80.4458 21.557L79.8288 36.4622L94.7389 35.8454L107.215 23.373L92.6138 23.6814L92.9223 9.08453L80.4458 21.557Z" fill="#33006F"/>
<path d="M52.8879 116.197C23.719 116.197 0 92.4853 0 63.3259C0 34.1664 23.719 10.4551 52.8879 10.4551C62.6908 10.4551 72.3224 13.162 80.6515 18.3017L78.8691 21.2143C71.0542 16.4172 62.0739 13.8816 52.8879 13.8816C25.6042 13.8816 3.4276 36.051 3.4276 63.3259C3.4276 90.6007 25.6042 112.77 52.8879 112.77C80.1716 112.77 102.348 90.6007 102.348 63.3259C102.348 54.1771 99.8118 45.1997 94.9788 37.3873L97.8923 35.6055C103.034 43.9662 105.742 53.5604 105.742 63.3259C105.742 92.4853 82.0225 116.197 52.8536 116.197H52.8879Z" fill="#33006F"/>
<path d="M52.8879 97.4538C34.0703 97.4538 18.7832 82.1716 18.7832 63.3602C18.7832 44.5488 34.1046 29.2666 52.8879 29.2666C59.4688 29.2666 65.8784 31.1512 71.3969 34.7147L69.546 37.593C64.6102 34.3721 58.8519 32.6931 52.9221 32.6931C35.9898 32.6931 22.2451 46.4676 22.2451 63.3602C22.2451 80.2528 36.024 94.0273 52.9221 94.0273C69.8202 94.0273 83.5992 80.2528 83.5992 63.3602C83.5992 57.4324 81.8854 51.6759 78.6977 46.7417L81.5769 44.8914C85.1416 50.4081 87.0268 56.7813 87.0268 63.3945C87.0268 82.2059 71.7054 97.4881 52.9221 97.4881L52.8879 97.4538Z" fill="#33006F"/>
<path d="M52.8879 78.6767C44.4217 78.6767 37.5322 71.7895 37.5322 63.326C37.5322 54.8626 44.4217 47.9753 52.8879 47.9753C54.2247 47.9753 55.5957 48.1467 56.8982 48.5236L56.007 51.813C54.9787 51.5389 53.9504 51.4018 52.9222 51.4018C46.3412 51.4018 40.9941 56.7472 40.9941 63.326C40.9941 69.9049 46.3412 75.2502 52.9222 75.2502C59.5031 75.2502 64.8502 69.9049 64.8502 63.326C64.8502 62.2981 64.7131 61.3044 64.4389 60.2765L67.7294 59.3856C68.1064 60.7219 68.2778 62.024 68.2778 63.3603C68.2778 71.8237 61.3883 78.711 52.9222 78.711L52.8879 78.6767Z" fill="#33006F"/>
<path d="M76.7944 36.9997L51.6851 62.101L54.1087 64.5238L79.2181 39.4226L76.7944 36.9997Z" fill="#33006F"/>
<defs>
<linearGradient id="paint0_linear_1_1787" x1="16.7945" y1="50.3052" x2="112.904" y2="50.3052" gradientUnits="userSpaceOnUse">
<stop stop-color="#AB00F4"/>
<stop offset="0.59" stop-color="#F5C552"/>
</linearGradient>
</defs>
</svg>
