<svg width="27" height="26" viewBox="0 0 27 26" fill="none" xmlns="http://www.w3.org/2000/svg">
<path d="M20.1819 4.498C19.8727 4.498 19.5704 4.58949 19.3133 4.76091C19.0562 4.93232 18.8558 5.17596 18.7374 5.46101C18.6191 5.74607 18.5881 6.05973 18.6485 6.36234C18.7088 6.66495 18.8577 6.94292 19.0764 7.16109C19.295 7.37926 19.5736 7.52783 19.8769 7.58802C20.1802 7.64822 20.4946 7.61732 20.7802 7.49925C21.0659 7.38118 21.3101 7.18123 21.4819 6.92469C21.6537 6.66815 21.7454 6.36654 21.7454 6.058C21.7454 5.64426 21.5807 5.24747 21.2875 4.95491C20.9943 4.66236 20.5966 4.498 20.1819 4.498ZM26.1753 7.644C26.15 6.56539 25.9475 5.49822 25.576 4.485C25.2447 3.61807 24.729 2.83306 24.0646 2.184C23.4194 1.51765 22.6308 1.00643 21.7584 0.689C20.7456 0.307009 19.6749 0.100373 18.5924 0.0779999C17.2113 -7.26432e-08 16.7683 0 13.2244 0C9.68048 0 9.23749 -7.26432e-08 7.85641 0.0779999C6.77389 0.100373 5.70315 0.307009 4.69034 0.689C3.81958 1.00964 3.03166 1.52043 2.3842 2.184C1.71636 2.82773 1.20399 3.61457 0.885854 4.485C0.503008 5.49555 0.29591 6.5639 0.273487 7.644C0.195312 9.022 0.195312 9.464 0.195312 13C0.195312 16.536 0.195312 16.978 0.273487 18.356C0.29591 19.4361 0.503008 20.5045 0.885854 21.515C1.20399 22.3854 1.71636 23.1723 2.3842 23.816C3.03166 24.4796 3.81958 24.9904 4.69034 25.311C5.70315 25.693 6.77389 25.8996 7.85641 25.922C9.23749 26 9.68048 26 13.2244 26C16.7683 26 17.2113 26 18.5924 25.922C19.6749 25.8996 20.7456 25.693 21.7584 25.311C22.6308 24.9936 23.4194 24.4823 24.0646 23.816C24.732 23.1694 25.2481 22.3837 25.576 21.515C25.9475 20.5018 26.15 19.4346 26.1753 18.356C26.1753 16.978 26.2535 16.536 26.2535 13C26.2535 9.464 26.2535 9.022 26.1753 7.644ZM23.8301 18.2C23.8206 19.0252 23.6708 19.8428 23.3871 20.618C23.179 21.1838 22.8449 21.695 22.4099 22.113C21.9873 22.5427 21.476 22.8754 20.9115 23.088C20.1346 23.3711 19.3152 23.5205 18.4881 23.53C17.1852 23.595 16.7032 23.608 13.2765 23.608C9.84986 23.608 9.36778 23.608 8.06488 23.53C7.20612 23.546 6.35102 23.4141 5.53723 23.14C4.99755 22.9165 4.5097 22.5846 4.10404 22.165C3.67159 21.7474 3.34163 21.2357 3.13988 20.67C2.82179 19.8837 2.64536 19.0475 2.61872 18.2C2.61872 16.9 2.54055 16.419 2.54055 13C2.54055 9.581 2.54055 9.1 2.61872 7.8C2.62456 6.95637 2.77891 6.12033 3.07474 5.33C3.30411 4.78128 3.65618 4.29216 4.10404 3.9C4.49988 3.45302 4.98909 3.09802 5.53723 2.86C6.33142 2.57406 7.16847 2.4246 8.01276 2.418C9.31567 2.418 9.79774 2.34 13.2244 2.34C16.651 2.34 17.1331 2.34 18.436 2.418C19.2631 2.42746 20.0825 2.57692 20.8594 2.86C21.4515 3.07925 21.9829 3.4357 22.4099 3.9C22.8369 4.29933 23.1705 4.78755 23.3871 5.33C23.6766 6.12161 23.8265 6.95731 23.8301 7.8C23.8952 9.1 23.9082 9.581 23.9082 13C23.9082 16.419 23.8952 16.9 23.8301 18.2ZM13.2244 6.331C11.903 6.33357 10.612 6.72688 9.51456 7.46124C8.41711 8.1956 7.56245 9.23806 7.05855 10.4569C6.55466 11.6757 6.42416 13.0162 6.68353 14.309C6.94289 15.6018 7.5805 16.7889 8.51578 17.7203C9.45106 18.6516 10.642 19.2855 11.9382 19.5418C13.2344 19.7981 14.5777 19.6652 15.7982 19.1601C17.0188 18.655 18.0619 17.8002 18.7958 16.7037C19.5297 15.6073 19.9213 14.3184 19.9213 13C19.9231 12.1226 19.7509 11.2536 19.4148 10.4428C19.0787 9.6321 18.5853 8.89565 17.9629 8.27587C17.3405 7.65608 16.6015 7.16518 15.7882 6.83141C14.975 6.49763 14.1037 6.32757 13.2244 6.331ZM13.2244 17.329C12.3663 17.329 11.5274 17.0751 10.8139 16.5994C10.1005 16.1238 9.54435 15.4477 9.21597 14.6566C8.88759 13.8656 8.80167 12.9952 8.96907 12.1555C9.13648 11.3157 9.5497 10.5444 10.1565 9.93893C10.7633 9.33351 11.5363 8.92122 12.378 8.75418C13.2196 8.58714 14.0919 8.67287 14.8847 9.00052C15.6775 9.32818 16.3551 9.88304 16.8319 10.5949C17.3086 11.3068 17.5631 12.1438 17.5631 13C17.5631 13.5685 17.4509 14.1314 17.2328 14.6566C17.0148 15.1819 16.6952 15.6591 16.2923 16.0611C15.8894 16.463 15.4111 16.7819 14.8847 16.9995C14.3583 17.217 13.7942 17.329 13.2244 17.329Z" fill="url(#paint0_linear_1_1441)"/>
<defs>
<linearGradient id="paint0_linear_1_1441" x1="0.649151" y1="17.3707" x2="20.7815" y2="24.5742" gradientUnits="userSpaceOnUse">
<stop stop-color="#6E229E"/>
<stop offset="1" stop-color="#FE9914"/>
</linearGradient>
</defs>
</svg>
