<svg width="111" height="114" viewBox="0 0 111 114" fill="none" xmlns="http://www.w3.org/2000/svg">
<g clip-path="url(#clip0_10_411)">
<path opacity="0.25" d="M15.3459 106.313C28.2833 113.379 46.1754 109.277 54.7774 97.3153C62.3472 86.7668 64.3772 70.4613 76.6953 66.3247C82.8543 64.2563 89.7703 66.1868 95.9981 64.3253C104.497 61.7743 109.555 52.7426 110.69 43.9176C112.72 28.4396 104.428 12.0997 90.7337 4.58472C77.0394 -2.93025 58.872 -1.10321 46.9324 8.96271C40.0508 14.7541 35.4058 22.6827 30.8983 30.4734C22.5716 44.8484 13.0062 56.7758 3.64723 70.0132C-5.02357 82.2854 2.85585 99.4871 15.3459 106.313Z" fill="url(#paint0_linear_10_411)"/>
<path d="M62.6224 81.4927V81.3893C62.6224 74.4258 65.8568 67.7727 71.2588 63.5326C80.7554 56.0866 85.5725 44.7452 84.1618 33.1625C82.1317 16.34 67.2331 3.30943 50.442 3.68863C32.4123 4.03335 17.7201 18.9943 17.7201 37.0923C17.7201 47.0548 22.5716 56.9139 30.7263 63.4981C36.3004 67.9795 39.5003 74.5293 39.5003 81.4582H36.0595C36.0595 75.5979 33.3413 70.0134 28.593 66.187C19.6469 58.9478 14.2793 48.0545 14.2793 37.0923C14.2793 17.1673 30.451 0.620589 50.3732 0.241394C69.0223 -0.172274 85.3317 14.1682 87.6026 32.7488C89.151 45.538 83.8521 58.0515 73.3921 66.2214C68.8159 69.8066 66.0976 75.46 66.0976 81.3548L62.6569 81.4582L62.6224 81.4927Z" fill="#33006F"/>
<path d="M72.1878 104.624H29.9693V79.8035H72.1878V104.624ZM33.4101 101.176H68.747V83.2507H33.4101V101.176Z" fill="#33006F"/>
<path d="M51.0614 114C44.9368 114 39.9476 109.002 39.9476 102.865H43.3884C43.3884 107.106 46.8292 110.553 51.0614 110.553C55.2936 110.553 58.7344 107.106 58.7344 102.865H62.1752C62.1752 109.002 57.186 114 51.0614 114Z" fill="#33006F"/>
<path d="M60.0763 90.4556H42.0809V93.9028H60.0763V90.4556Z" fill="#33006F"/>
<path d="M46.7604 81.4926H43.3196V57.1207H38.8466C34.4768 57.1207 30.9327 53.5701 30.9327 49.1921C30.9327 44.8141 34.4768 41.2634 38.8466 41.2634C43.2164 41.2634 46.7604 44.8141 46.7604 49.1921V53.6735H52.0248V57.1207H46.7604V81.4926ZM38.8466 44.7451C36.3692 44.7451 34.3735 46.7445 34.3735 49.2265C34.3735 51.7085 36.3692 53.7079 38.8466 53.7079H43.3196V49.2265C43.3196 46.7445 41.3239 44.7451 38.8466 44.7451Z" fill="#33006F"/>
<path d="M58.7687 81.4926H55.328V57.1207H50.0635V53.6735H55.328V49.1921C55.328 44.8141 58.872 41.2634 63.2418 41.2634C67.6116 41.2634 71.1556 44.8141 71.1556 49.1921C71.1556 53.5701 67.6116 57.1207 63.2418 57.1207H58.7687V81.4926ZM58.7687 53.6735H63.2418C65.7191 53.6735 67.7148 51.6741 67.7148 49.1921C67.7148 46.7101 65.7191 44.7107 63.2418 44.7107C60.7644 44.7107 58.7687 46.7101 58.7687 49.1921V53.6735Z" fill="#33006F"/>
</g>
<defs>
<linearGradient id="paint0_linear_10_411" x1="-9.9558e-06" y1="54.8799" x2="111" y2="54.8799" gradientUnits="userSpaceOnUse">
<stop stop-color="#AB00F4"/>
<stop offset="1" stop-color="#F5C552"/>
</linearGradient>
<clipPath id="clip0_10_411">
<rect width="111" height="114" fill="white"/>
</clipPath>
</defs>
</svg>
