<svg xmlns="http://www.w3.org/2000/svg" width="102" height="61" viewBox="0 0 102 61" fill="none">
<path fill-rule="evenodd" clip-rule="evenodd" d="M1.29415 30.4954C1.31093 46.6245 14.5127 59.6955 30.803 59.7121L30.7977 59.7213C30.9689 59.7213 31.1332 59.7886 31.2543 59.9085C31.3754 60.0284 31.4434 60.1911 31.4434 60.3606C31.4434 60.7137 31.1543 61 30.7977 61C13.7965 60.9812 0.0189608 47.3401 0 30.5072C0.0109424 13.6666 13.794 0.0158975 30.803 0C31.1596 0 31.4487 0.286252 31.4487 0.639361C31.4487 0.99247 31.1596 1.27872 30.803 1.27872C14.5127 1.29533 1.31093 14.3664 1.29415 30.4954ZM32.2003 0.706179C32.1792 1.06022 32.4515 1.36438 32.809 1.38616C33.1666 1.40705 33.4738 1.13746 33.4958 0.783479C33.5169 0.429441 33.2446 0.125279 32.8871 0.103503C32.5295 0.0826093 32.2223 0.352194 32.2003 0.706179ZM35.9849 1.11626C35.9331 1.4674 35.6039 1.71068 35.2491 1.65998C34.8945 1.60869 34.6488 1.28275 34.7 0.931528C34.7518 0.580391 35.081 0.337106 35.4357 0.387809C35.7904 0.439096 36.0361 0.765039 35.9849 1.11626ZM37.6575 2.13295C38.0068 2.21305 38.3556 1.99786 38.4369 1.65212C38.4757 1.48585 38.4462 1.31112 38.3549 1.16639C38.2635 1.02167 38.1179 0.918798 37.9499 0.880431C37.7824 0.841992 37.6062 0.871062 37.4603 0.961242C37.3144 1.05142 37.2106 1.19532 37.1719 1.36126C37.091 1.7071 37.3083 2.05245 37.6575 2.13295ZM40.8347 2.38843C40.7247 2.72609 40.3595 2.9119 40.0182 2.80375C39.6772 2.69492 39.4895 2.33326 39.5987 1.99538C39.6512 1.83301 39.7668 1.69797 39.92 1.62006C40.0731 1.54215 40.2513 1.52776 40.4152 1.58006C40.5792 1.63203 40.7156 1.74646 40.7943 1.89811C40.8729 2.04975 40.8875 2.22616 40.8347 2.38843ZM42.3141 3.66715C42.473 3.73265 42.6518 3.73285 42.8109 3.66772C42.97 3.60259 43.0964 3.47747 43.1623 3.31996C43.2994 2.99254 43.1432 2.61698 42.8129 2.48014C42.4819 2.34453 42.1024 2.49985 41.9647 2.82734C41.8986 2.98473 41.8984 3.16171 41.9641 3.31925C42.0299 3.47679 42.1563 3.60196 42.3154 3.66715H42.3141ZM45.4052 4.44015C45.2401 4.75492 44.8488 4.878 44.5305 4.71529C44.2126 4.55183 44.0883 4.16443 44.2526 3.84927C44.4177 3.53449 44.809 3.41142 45.1273 3.57413C45.4452 3.73759 45.5696 4.12499 45.4052 4.44015ZM46.6478 5.94422C46.9511 6.1325 47.3512 6.04227 47.5423 5.74246C47.634 5.59828 47.664 5.42392 47.6258 5.2578C47.5876 5.09168 47.4842 4.94742 47.3385 4.85678C47.1929 4.766 47.0168 4.73626 46.849 4.77411C46.6812 4.81195 46.5355 4.91428 46.444 5.05855C46.3523 5.20273 46.3222 5.37708 46.3605 5.5432C46.3987 5.70932 46.502 5.85359 46.6478 5.94422ZM49.1385 7.46487C48.9679 7.48945 48.7945 7.44577 48.6565 7.34348C48.5181 7.24169 48.4264 7.08954 48.4015 6.92064C48.3767 6.75175 48.4208 6.58002 48.5241 6.44339C48.7387 6.15873 49.1456 6.10008 49.4332 6.31238C49.5716 6.41417 49.6633 6.56632 49.6882 6.73521C49.713 6.90411 49.6689 7.07584 49.5656 7.21246C49.4627 7.34946 49.3091 7.44029 49.1385 7.46487ZM51.4565 8.85148C51.5714 8.72426 51.6304 8.55699 51.6204 8.38663C51.6105 8.21626 51.5325 8.05683 51.4036 7.94353C51.2752 7.83021 51.1065 7.77207 50.9348 7.78189C50.763 7.79172 50.6023 7.86872 50.4879 7.99594C50.2494 8.26118 50.2731 8.66758 50.5408 8.90389C50.8087 9.14002 51.2192 9.11656 51.4578 8.85148H51.4565ZM53.2284 9.72929C53.4744 9.98675 53.4638 10.3928 53.2045 10.6372V10.6385C52.9445 10.8822 52.5344 10.8716 52.2875 10.615C52.0406 10.3573 52.0512 9.95031 52.3113 9.70571C52.5714 9.46209 52.9814 9.47263 53.2284 9.72929ZM54.7925 12.5632C55.0723 12.341 55.1173 11.9363 54.893 11.6592C54.6686 11.3821 54.2599 11.3376 53.98 11.5596C53.8459 11.6663 53.7601 11.8213 53.7415 11.9906C53.7229 12.1599 53.773 12.3296 53.8807 12.4623C53.9883 12.5953 54.1448 12.6804 54.3158 12.6991C54.4868 12.7178 54.6582 12.6684 54.7925 12.5619V12.5632ZM56.391 13.7187C56.5909 14.0133 56.5122 14.4125 56.215 14.611C56.0722 14.7064 55.8969 14.7417 55.7279 14.709C55.5588 14.6763 55.4098 14.5783 55.3138 14.4367C55.1139 14.1422 55.1926 13.7429 55.4898 13.5445C55.6326 13.4491 55.8078 13.4138 55.9769 13.4465C56.146 13.4792 56.2949 13.5771 56.391 13.7187ZM56.5775 16.5212C56.6614 16.67 56.8015 16.7796 56.967 16.8261C57.1326 16.8725 57.31 16.8519 57.4602 16.7688C57.7733 16.5955 57.8852 16.2037 57.7103 15.8936C57.5352 15.5844 57.1405 15.4737 56.8276 15.646C56.5153 15.8193 56.4035 16.2101 56.5775 16.5199V16.5212ZM58.0238 19.0374C57.8627 18.9774 57.7323 18.8565 57.6613 18.7013C57.5901 18.5462 57.5842 18.3694 57.6447 18.2099C57.7053 18.0504 57.8274 17.9213 57.9842 17.851C58.1409 17.7805 58.3194 17.7746 58.4805 17.8346C58.6416 17.8946 58.772 18.0155 58.843 18.1707C58.9141 18.3258 58.9201 18.5026 58.8595 18.6621C58.799 18.8216 58.6769 18.9507 58.5201 19.021C58.3634 19.0914 58.1849 19.0973 58.0238 19.0374ZM58.5571 20.9653C58.6141 21.1266 58.7337 21.2589 58.8894 21.3327C59.0452 21.4064 59.2242 21.4157 59.3868 21.3583C59.5498 21.3019 59.6834 21.1835 59.7579 21.0293C59.8324 20.8751 59.8417 20.6979 59.7838 20.5368C59.7266 20.3757 59.6069 20.2437 59.4513 20.1699C59.2957 20.0962 59.1168 20.0868 58.9541 20.1438C58.7914 20.2005 58.658 20.3189 58.5836 20.473C58.5091 20.6271 58.4996 20.8042 58.5571 20.9653ZM55.2437 46.579C55.4393 46.2814 55.8414 46.1969 56.1422 46.3903V46.389C56.2868 46.4818 56.3882 46.6278 56.424 46.7947C56.4597 46.9616 56.4269 47.1357 56.3327 47.2786C56.239 47.4218 56.0916 47.5222 55.923 47.5576C55.7545 47.593 55.5786 47.5605 55.4342 47.4673C55.1345 47.2737 55.0493 46.8765 55.2437 46.579ZM54.7117 48.4316C54.4284 48.2146 54.0212 48.2656 53.8013 48.5456C53.5822 48.8261 53.6337 49.2293 53.9165 49.447C54.2001 49.6636 54.6074 49.612 54.8269 49.3317C54.9324 49.1971 54.9796 49.0264 54.958 48.8573C54.9365 48.6883 54.8478 48.5346 54.7117 48.4303V48.4316ZM52.0272 50.8485C52.0197 50.6782 52.081 50.5119 52.1975 50.3863C52.3138 50.2606 52.4758 50.1858 52.6478 50.1784C52.8198 50.171 52.9878 50.2317 53.1146 50.347C53.2416 50.4621 53.3171 50.6225 53.3246 50.7929C53.332 50.9632 53.2708 51.1295 53.1543 51.255C52.9118 51.5162 52.5016 51.5338 52.2372 51.2943C52.1102 51.1792 52.0346 51.0188 52.0272 50.8485ZM50.4442 52.0896C50.3176 52.205 50.2425 52.3656 50.2355 52.5359C50.2286 52.7062 50.2903 52.8723 50.4072 52.9975C50.5238 53.1229 50.686 53.1972 50.858 53.2041C51.03 53.211 51.1977 53.1499 51.3242 53.0342C51.4508 52.9187 51.5259 52.7581 51.5329 52.5878C51.5398 52.4175 51.4781 52.2514 51.3612 52.1262C51.2446 52.0009 51.0824 51.9265 50.9104 51.9196C50.7384 51.9128 50.5707 51.9739 50.4442 52.0896ZM48.4395 54.5435C48.2191 54.2631 48.2701 53.859 48.5533 53.6408V53.6421C48.8362 53.4249 49.2434 53.4753 49.4637 53.7548C49.6831 54.035 49.6322 54.4381 49.3499 54.6562C49.0669 54.8734 48.6597 54.823 48.4395 54.5435ZM46.5393 55.0322C46.2391 55.2263 46.1544 55.6244 46.35 55.9218C46.4439 56.0648 46.5914 56.1649 46.76 56.2001C46.9286 56.2352 47.1043 56.2025 47.2485 56.1091C47.5487 55.9151 47.6333 55.517 47.4377 55.2195C47.2417 54.9224 46.8397 54.8385 46.5393 55.0322ZM44.0995 56.6333C44.1491 56.4699 44.2623 56.3327 44.4141 56.252L44.4128 56.2533C44.5645 56.1725 44.7425 56.1547 44.9076 56.2038C45.0726 56.253 45.2111 56.365 45.2927 56.5153C45.3743 56.6654 45.3922 56.8414 45.3426 57.0046C45.2929 57.1678 45.1798 57.3047 45.0281 57.3853C44.8765 57.466 44.6987 57.4837 44.5339 57.4346C44.3691 57.3854 44.2308 57.2734 44.1494 57.1232C44.0678 56.9729 44.0499 56.7967 44.0995 56.6333ZM42.1936 57.2935C41.8649 57.4355 41.7144 57.8143 41.8575 58.1399C41.9261 58.2965 42.0548 58.4196 42.2152 58.482C42.3756 58.5445 42.5545 58.5411 42.7124 58.4727C43.0411 58.3308 43.1916 57.9519 43.0485 57.6263C42.9051 57.3008 42.5225 57.1519 42.1936 57.2935ZM39.52 58.4705C39.5962 58.3176 39.7307 58.201 39.8938 58.1465C40.0568 58.0916 40.2352 58.1031 40.3896 58.1786C40.544 58.254 40.6618 58.3872 40.7169 58.5487C40.8316 58.8848 40.6498 59.2493 40.3106 59.3636C39.9712 59.4772 39.603 59.2972 39.4876 58.9614C39.4321 58.8 39.4438 58.6234 39.52 58.4705ZM37.5305 58.8015C37.3632 58.8427 37.2194 58.948 37.1305 59.0942C37.0417 59.2404 37.0151 59.4155 37.0567 59.5811C37.0983 59.7467 37.2046 59.8891 37.3523 59.9771C37.4999 60.065 37.6768 60.0913 37.8441 60.0501C38.1918 59.9638 38.4032 59.615 38.3165 59.2706C38.2749 59.105 38.1686 58.9626 38.0209 58.8746C37.8733 58.7866 37.6964 58.7604 37.5291 58.8015H37.5305ZM34.5809 60.0017C34.5237 59.6511 34.7641 59.321 35.1181 59.264H35.1195C35.2893 59.2368 35.4632 59.2776 35.6027 59.3774C35.7421 59.4772 35.8358 59.6277 35.8631 59.796C35.891 59.9644 35.85 60.1368 35.7492 60.2752C35.6484 60.4136 35.4961 60.5066 35.3259 60.5336C34.9719 60.5902 34.6384 60.3522 34.5809 60.0017ZM32.678 59.5261C32.5064 59.5391 32.347 59.6192 32.235 59.7487C32.1231 59.8783 32.0677 60.0466 32.0813 60.2165C32.0944 60.3865 32.1753 60.5443 32.3062 60.6552C32.437 60.766 32.607 60.8208 32.7786 60.8074C33.1358 60.7795 33.4028 60.4707 33.3754 60.1169C33.3622 59.947 33.2813 59.7892 33.1505 59.6783C33.0197 59.5675 32.8497 59.5127 32.678 59.5261ZM78.9857 31.744C78.7199 30.8452 78.151 30.0638 77.374 29.5298C76.5591 28.9579 75.5806 28.6595 74.5819 28.6782C73.4943 28.6583 72.4304 28.9945 71.5556 29.6346C70.8841 30.2041 70.3647 30.9286 70.0431 31.744H78.9857ZM74.3803 25.2219C76.7393 25.1327 79.0283 26.0249 80.6927 27.6825C82.3578 29.4343 83.2352 31.7792 83.1249 34.1822L83.1103 34.9591H69.8684C70.0146 36.0363 70.5615 37.0207 71.4021 37.7197C72.3031 38.4258 73.4297 38.7893 74.5779 38.7442C76.0652 38.7642 77.4972 38.1871 78.5477 37.1445L82.0226 38.7599C81.2348 39.9078 80.1634 40.837 78.9103 41.4589C77.5613 42.0724 76.0884 42.3723 74.6044 42.3354C72.2573 42.4247 69.9772 41.5505 68.303 39.9194C66.686 38.3199 65.8062 36.1313 65.8708 33.8691C65.799 31.5666 66.6744 29.3339 68.2964 27.6825C69.8852 26.0525 72.0933 25.1595 74.3803 25.2219ZM62.433 25.163L57.8016 34.1403L53.4083 25.163H48.7835L56.9878 42.3354H58.491L66.9321 25.163H62.433ZM96.2411 29.5298C97.0178 30.0639 97.5862 30.8453 97.8515 31.744H88.9102C89.2314 30.9284 89.7509 30.2038 90.4227 29.6346C91.2974 28.9943 92.3613 28.658 93.449 28.6782C94.4477 28.6596 95.4262 28.958 96.2411 29.5298ZM101.976 34.9591H88.7276C88.8738 36.0363 89.4207 37.0207 90.2613 37.7197C91.1625 38.4255 92.2889 38.7889 93.4371 38.7442C94.9244 38.7643 96.3565 38.1872 97.4069 37.1445L100.882 38.7599C100.094 39.9085 99.0229 40.8382 97.7695 41.4602C96.4205 42.0738 94.9476 42.3737 93.4636 42.3367C91.1169 42.426 88.8372 41.5517 87.1635 39.9207C85.5462 38.3214 84.6664 36.1327 84.7313 33.8704C84.6597 31.568 85.535 29.3353 87.1569 27.6838C88.7466 26.0532 90.9558 25.1602 93.2439 25.2233C95.6036 25.1334 97.8936 26.0257 99.5585 27.6838C101.224 29.4355 102.101 31.7804 101.991 34.1835L101.976 34.9591ZM27.4313 34.4115C27.4313 37.058 28.0532 38.1324 31.4646 38.1324L31.4884 38.1402L31.5533 42.3419H29.1714C27.4925 42.5031 25.8291 41.9102 24.6392 40.7265C23.5778 39.1426 23.0933 37.2479 23.2657 35.3548V22.4248H18.7785V18.1916H27.4313V34.4115ZM38.0135 29.6346C37.3412 30.2037 36.8212 30.9282 36.4996 31.744H45.4423C45.1765 30.8452 44.6077 30.0637 43.8305 29.5298C43.0155 28.9581 42.0371 28.6597 41.0384 28.6782C39.9508 28.6581 38.8869 28.9943 38.0121 29.6346H38.0135ZM45.3668 41.4602C46.6201 40.838 47.6916 39.9083 48.4792 38.7599H48.4778L45.0029 37.1445C43.9526 38.1873 42.5205 38.7645 41.0331 38.7442C39.8851 38.7893 38.7587 38.4263 37.8573 37.721C37.0168 37.0219 36.47 36.0376 36.3236 34.9605H49.5722L49.5867 34.1835C49.6974 31.7804 48.8199 29.4354 47.1546 27.6838C45.4901 26.0258 43.2006 25.1335 40.8413 25.2233C38.5532 25.16 36.3438 26.0531 34.7542 27.6838C33.1324 29.3349 32.2571 31.5671 32.3287 33.8691C32.2639 36.1313 33.1437 38.32 34.7609 39.9194C36.4346 41.5504 38.7143 42.4247 41.0609 42.3354C42.5449 42.3726 44.0177 42.0732 45.3668 41.4602Z" fill="#3F0097"/>
</svg>